<?xml version="1.0" encoding="UTF-8" standalone="no"?>
<!-- Created with Inkscape (http://www.inkscape.org/) -->

<svg
   xmlns:dc="http://purl.org/dc/elements/1.1/"
   xmlns:cc="http://creativecommons.org/ns#"
   xmlns:rdf="http://www.w3.org/1999/02/22-rdf-syntax-ns#"
   xmlns:svg="http://www.w3.org/2000/svg"
   xmlns="http://www.w3.org/2000/svg"
   version="1.1"
   width="765"
   height="990"
   id="svg2"
   xml:space="preserve"><metadata
     id="metadata8"><rdf:RDF><cc:Work
         rdf:about=""><dc:format>image/svg+xml</dc:format><dc:type
           rdf:resource="http://purl.org/dc/dcmitype/StillImage" /><dc:title></dc:title></cc:Work></rdf:RDF></metadata><defs
     id="defs6"><clipPath
       id="clipPath16"><path
         d="M 0,792 612,792 612,0 0,0 0,792 z"
         id="path18" /></clipPath></defs><g
     transform="matrix(1.25,0,0,-1.25,0,990)"
     id="g10"><g
       id="g12"><g
         clip-path="url(#clipPath16)"
         id="g14"><g
           transform="translate(419.0518,310.333)"
           id="g20"><path
             d="m 0,0 c 15.839,-26.513 21.979,-58.593 32.439,-91.931 1.718,-2.888 -1.378,-2.24 -1.464,-5.128 1.549,-0.164 2.543,-0.885 4.548,-10.446 l 10.33,-7.629 C 33.938,-72.976 24.023,-31.078 7.472,0 L 0,0 z"
             id="path22"
             style="fill:#000000;fill-opacity:1;fill-rule:nonzero;stroke:none" /></g><path
           d="m 514.077,153.249 -71.094,0 0,1 71.094,0 0,-1 z"
           id="path24"
           style="fill:#000000;fill-opacity:1;fill-rule:nonzero;stroke:none" /><g
           transform="translate(445.2979,141.1182)"
           id="g26"><path
             d="M 0,0 -0.342,0.939 66.465,25.258 66.807,24.318 0,0 z"
             id="path28"
             style="fill:#000000;fill-opacity:1;fill-rule:nonzero;stroke:none" /></g><g
           transform="translate(451.6211,130.5146)"
           id="g30"><path
             d="M 0,0 -0.643,0.766 53.818,46.465 54.461,45.699 0,0 z"
             id="path32"
             style="fill:#000000;fill-opacity:1;fill-rule:nonzero;stroke:none" /></g><g
           transform="translate(461.1885,122.7109)"
           id="g34"><path
             d="M 0,0 -0.865,0.5 34.684,62.07 35.549,61.57 0,0 z"
             id="path36"
             style="fill:#000000;fill-opacity:1;fill-rule:nonzero;stroke:none" /></g><g
           transform="translate(472.8496,118.6523)"
           id="g38"><path
             d="M 0,0 -0.984,0.174 11.362,70.188 12.347,70.015 0,0 z"
             id="path40"
             style="fill:#000000;fill-opacity:1;fill-rule:nonzero;stroke:none" /></g><g
           transform="translate(484.2119,118.6523)"
           id="g42"><path
             d="m 0,0 -12.347,70.015 0.985,0.173 L 0.984,0.174 0,0 z"
             id="path44"
             style="fill:#000000;fill-opacity:1;fill-rule:nonzero;stroke:none" /></g><g
           transform="translate(495.8721,122.7109)"
           id="g46"><path
             d="m 0,0 -35.547,61.571 0.865,0.5 L 0.865,0.5 0,0 z"
             id="path48"
             style="fill:#000000;fill-opacity:1;fill-rule:nonzero;stroke:none" /></g><g
           transform="translate(505.4404,130.5146)"
           id="g50"><path
             d="m 0,0 -54.462,45.699 0.643,0.766 L 0.643,0.766 0,0 z"
             id="path52"
             style="fill:#000000;fill-opacity:1;fill-rule:nonzero;stroke:none" /></g><g
           transform="translate(511.7637,141.1182)"
           id="g54"><path
             d="m 0,0 -66.807,24.318 0.342,0.94 L 0.342,0.939 0,0 z"
             id="path56"
             style="fill:#000000;fill-opacity:1;fill-rule:nonzero;stroke:none" /></g><path
           d="m 351.736,238.395 -170.436,0 0,3 170.436,0 0,-3 z"
           id="path58"
           style="fill:#000000;fill-opacity:1;fill-rule:nonzero;stroke:none" /><g
           transform="translate(186.9531,209.3398)"
           id="g60"><path
             d="M 0,0 -1.026,2.818 159.132,61.11 160.157,58.292 0,0 z"
             id="path62"
             style="fill:#000000;fill-opacity:1;fill-rule:nonzero;stroke:none" /></g><g
           transform="translate(202.2021,183.9688)"
           id="g64"><path
             d="m 0,0 -1.929,2.299 130.562,109.552 1.928,-2.298 L 0,0 z"
             id="path66"
             style="fill:#000000;fill-opacity:1;fill-rule:nonzero;stroke:none" /></g><g
           transform="translate(225.209,165.3438)"
           id="g68"><path
             d="m 0,0 -2.598,1.5 85.217,147.601 2.598,-1.5 L 0,0 z"
             id="path70"
             style="fill:#000000;fill-opacity:1;fill-rule:nonzero;stroke:none" /></g><g
           transform="translate(253.1992,155.71)"
           id="g72"><path
             d="M 0,0 -2.954,0.521 26.642,168.367 29.596,167.846 0,0 z"
             id="path74"
             style="fill:#000000;fill-opacity:1;fill-rule:nonzero;stroke:none" /></g><g
           transform="translate(279.8408,155.71)"
           id="g76"><path
             d="m 0,0 -29.596,167.846 2.954,0.521 L 2.954,0.521 0,0 z"
             id="path78"
             style="fill:#000000;fill-opacity:1;fill-rule:nonzero;stroke:none" /></g><g
           transform="translate(307.8281,165.3438)"
           id="g80"><path
             d="m 0,0 -85.215,147.601 2.597,1.5 L 2.598,1.5 0,0 z"
             id="path82"
             style="fill:#000000;fill-opacity:1;fill-rule:nonzero;stroke:none" /></g><g
           transform="translate(330.8369,183.9678)"
           id="g84"><path
             d="m 0,0 -130.56,109.554 1.928,2.298 L 1.928,2.299 0,0 z"
             id="path86"
             style="fill:#000000;fill-opacity:1;fill-rule:nonzero;stroke:none" /></g><g
           transform="translate(346.0869,209.3379)"
           id="g88"><path
             d="m 0,0 -160.157,58.294 1.026,2.818 L 1.025,2.818 0,0 z"
             id="path90"
             style="fill:#000000;fill-opacity:1;fill-rule:nonzero;stroke:none" /></g><g
           transform="translate(471.2051,186.5576)"
           id="g92"><path
             d="m 0,0 c 0,0 3.051,-20.104 13.35,-32.558 l -5.715,-2.154 c 0,0 -9.555,11.443 -13.935,32.042 L 0,0 z"
             id="path94"
             style="fill:#000000;fill-opacity:1;fill-rule:nonzero;stroke:none" /></g><g
           transform="translate(278.1895,313.9629)"
           id="g96"><path
             d="m 0,0 c 0,0 -5.341,-46.669 -17.928,-74.067 l 6.491,0 c 0,0 9.148,16.086 18.303,74.067 C 16.021,57.98 0,0 0,0"
             id="path98"
             style="fill:#000000;fill-opacity:1;fill-rule:nonzero;stroke:none" /></g><g
           transform="translate(268.209,167.8496)"
           id="g100"><path
             d="m 0,0 c -39.378,0 -71.377,32.048 -71.377,71.52 0,39.406 31.999,71.445 71.377,71.445 39.496,0 71.482,-32.039 71.482,-71.445 C 71.482,32.048 39.496,0 0,0 m 0,214.337 c -78.839,0 -142.779,-64.02 -142.779,-142.817 0,-78.918 63.94,-142.815 142.779,-142.815 78.97,0 142.916,63.897 142.916,142.815 0,78.797 -63.946,142.817 -142.916,142.817"
             id="path102"
             style="fill:#0075b4;fill-opacity:1;fill-rule:nonzero;stroke:none" /></g><g
           transform="translate(478.8252,122.2305)"
           id="g104"><path
             d="m 0,0 c -15.839,0 -28.678,12.866 -28.678,28.718 0,15.823 12.839,28.689 28.678,28.689 15.844,0 28.689,-12.866 28.689,-28.689 C 28.689,12.866 15.844,0 0,0 m 0,86.07 c -31.69,0 -57.36,-25.706 -57.36,-57.352 0,-31.689 25.67,-57.351 57.36,-57.351 31.681,0 57.389,25.662 57.389,57.351 C 57.389,60.364 31.681,86.07 0,86.07"
             id="path106"
             style="fill:#48a748;fill-opacity:1;fill-rule:nonzero;stroke:none" /></g><g
           transform="translate(281.0562,239.8955)"
           id="g108"><path
             d="m 0,0 c 0,-7.9 -6.404,-14.305 -14.304,-14.305 -7.901,0 -14.305,6.405 -14.305,14.305 0,7.9 6.404,14.305 14.305,14.305 C -6.404,14.305 0,7.9 0,0"
             id="path110"
             style="fill:#000000;fill-opacity:1;fill-rule:nonzero;stroke:none" /></g><g
           transform="translate(488.375,154)"
           id="g112"><path
             d="m 0,0 c 0,-5.267 -4.269,-9.537 -9.535,-9.537 -5.267,0 -9.537,4.27 -9.537,9.537 0,5.268 4.27,9.536 9.537,9.536 C -4.269,9.536 0,5.268 0,0"
             id="path114"
             style="fill:#000000;fill-opacity:1;fill-rule:nonzero;stroke:none" /></g><g
           transform="translate(243.687,545.4634)"
           id="g116"><path
             d="m 0,0 c 0,0 -126.99,114.076 -115.367,119.673 0,0 122.18,-96.636 128.415,-100.678 C 18.332,15.569 0,0 0,0"
             id="path118"
             style="fill:#e2e2d7;fill-opacity:1;fill-rule:nonzero;stroke:none" /></g><g
           transform="translate(330.5703,347.7324)"
           id="g120"><path
             d="m 0,0 c 0,0 -5.811,-67.153 62.491,-44.768 0,0 32.145,-45.298 59.695,-4.572 0,0 -35.375,1.013 -23.714,61.049 0,0 34.044,43.423 23.714,139.26 l 10.904,23.15 -40.793,10.37 -10.462,14.103 c 0,0 -73.87,73.074 -132.988,31.085 0,0 -62.02,-32.235 -26.419,-67.82 l -0.347,-10.888 2.086,-7.478 39.622,-30.673 c 0,0 -69.006,-47.96 -60.629,-69.771 l 8.953,-4.592 25.828,5.739 13.966,0.576 L -20.59,64.283 -5.236,83.798 5.88,96.224 47.569,66.579 68.805,40.75 62.491,9.184 46.421,-10.906 c 0,0 -21.094,-8.035 -46.421,10.906"
             id="path122"
             style="fill:#d8d8e5;fill-opacity:1;fill-rule:nonzero;stroke:none" /></g><g
           transform="translate(381.4619,465.1816)"
           id="g124"><path
             d="m 0,0 c -4.664,0 -8.579,0.494 -10.966,1.762 0,0 -2.465,2.632 -1.842,4.739 0.625,2.107 5.075,1.345 5.075,1.345 5.543,-2.951 31.221,1.078 47.746,4.887 29.48,8.466 36.914,33.324 38.596,41.616 C 5.126,76.446 -30.882,28.245 -31.242,27.751 c 0,0 -2.307,-2.738 -4.592,-1.363 -2.285,1.377 -0.984,5.406 -0.984,5.406 0.406,0.561 10.181,13.841 29.987,24.001 18.188,9.33 48.63,17.636 90.369,4.232 L 86.175,59.18 85.914,56.423 C 85.878,56.037 81.787,17.505 41.819,6.086 L 41.647,6.04 C 36.301,4.807 14.526,0 0,0"
             id="path126"
             style="fill:#000000;fill-opacity:1;fill-rule:nonzero;stroke:none" /></g><g
           transform="translate(246.6318,382.4561)"
           id="g128"><path
             d="m 0,0 -0.219,0 c -8.532,0 -13.708,1.755 -15.825,5.367 -1.31,2.236 -1.086,4.631 -0.415,6.267 2.265,13.411 15.376,29.398 19.72,34.694 l 0.987,1.179 c 5.015,4.956 37.469,34.433 38.848,35.686 l 4.631,-5.098 C 47.392,77.792 14.553,47.964 9.218,42.733 L 8.587,41.961 C -2.417,28.544 -8.578,17.828 -9.726,10.11 l -0.12,-0.797 -0.27,-0.361 c 0.03,0.018 0.006,-0.064 0.012,-0.1 0.171,-0.404 2.322,-1.935 9.67,-1.964 15.983,2.038 33.915,4.889 36.413,6.16 l 0.433,0.22 0.445,0.125 c 0.071,0.024 15.232,4.83 46.21,48.577 l 5.62,-3.98 C 57.958,14.592 41.999,7.78 38.884,6.813 33.369,4.382 8.055,1.024 0.215,0.027 L 0,0 z"
             id="path130"
             style="fill:#000000;fill-opacity:1;fill-rule:nonzero;stroke:none" /></g><g
           transform="translate(241.4575,541.8193)"
           id="g132"><path
             d="m 0,0 -101.893,96.864 -0.138,0.17 c -20.54,25.192 -17.608,28.099 -15.667,30.021 2.786,2.767 6.096,3.107 28.426,-15.437 C -40.728,71.307 16.401,21.664 16.973,21.168 l -4.52,-5.2 c -0.57,0.498 -57.643,50.09 -106.123,90.349 -7.483,6.214 -12.367,9.873 -15.531,12.029 2.983,-4.661 7.818,-11.194 12.371,-16.792 L 4.746,4.991 0,0 z"
             id="path134"
             style="fill:#000000;fill-opacity:1;fill-rule:nonzero;stroke:none" /></g><path
           d="m 309,456 -4,0 0,57 4,0 0,-57 z"
           id="path136"
           style="fill:#f48120;fill-opacity:1;fill-rule:nonzero;stroke:none" /><g
           transform="translate(445.4189,302.3076)"
           id="g138"><path
             d="m 0,0 c -8.097,4.224 -13.08,10.147 -15.214,18.083 -6.625,24.606 9.181,43.517 13.526,52.767 0.577,1.366 1.194,3.034 1.809,5.046 13.415,51.993 17.423,92.116 11.856,119.232 -1.299,6.331 -7.405,1.822 -6.745,-1.386 C 10.485,168.146 6.751,130.035 -5.818,80.463 -7.964,72.311 -10.912,68.448 -10.912,68.448 -16.866,57.573 -26.958,35.237 -21.871,16.309 -19.159,6.218 -12.549,-1.486 -2.225,-6.595 l 0.908,-0.444 1.001,0.111 c 1.152,0.12 2.583,0.04 3.391,-0.165 -0.313,-0.739 -1.226,-2.306 -3.86,-4.974 -1.508,-1.046 -12.301,-8.149 -24.263,-5.518 -8.789,1.937 -16.379,8.676 -22.561,20.029 l -1.509,2.763 -2.887,-1.248 c -0.253,-0.111 -25.536,-10.836 -43.059,-0.404 -9.855,5.865 -15.621,17.495 -17.143,34.57 l -0.054,0.37 c -0.272,1.365 -0.381,3.029 -0.311,4.163 0.847,-0.53 2.245,-1.606 4.363,-3.792 l 0.411,-0.361 c 0.828,-0.62 20.489,-15.082 38.598,-8.295 11.5,4.31 19.102,15.949 23.839,34.676 0.591,2.636 3.87,9.658 0.731,20.447 -5.65,19.434 -27.298,38.381 -64.339,56.316 -67.216,32.548 -82.24,47.696 -84.197,56.032 6.438,-4.016 19.558,-10.813 34.724,-10.813 0.679,0 1.364,0.013 2.052,0.042 0,0 3.289,0.858 3.289,3.753 0,2.896 -3.571,3.129 -3.571,3.129 -10.369,-0.418 -26.663,6.554 -26.663,6.554 -4.334,2.058 -5.576,3.996 -7.811,5.749 -6.307,5.547 -18.438,20.83 -0.177,46.057 2.124,2.248 30.278,31.437 63.224,35.804 l 0.522,0.11 c 0.102,0.029 10.337,2.742 27.916,-7.025 l 0.214,-0.109 c 0.591,-0.276 58.929,-27.783 71.58,-52.271 l 1.1,-2.125 2.375,0.287 c 0.064,0.005 6.44,0.627 13.327,-3.952 3.98,-2.648 -8.682,6.94 -11.741,10.857 -15.247,25.657 -69.972,51.682 -73.613,53.392 -18.73,10.374 -30.625,8.172 -32.8,7.634 -36.448,-4.939 -66.053,-36.722 -67.298,-38.074 l -0.251,-0.305 c -18.556,-25.489 -9.81,-43.137 -2.766,-51.51 -0.367,-0.754 -0.522,-1.588 -0.504,-2.376 -2.191,-10.854 3.585,-26.131 88.066,-67.038 43.552,-21.088 57.008,-39.758 60.63,-51.708 0.617,-2.036 0.946,-3.889 1.099,-5.567 l 0.011,0 c 0.004,-0.072 0.004,-0.148 0.007,-0.22 0.173,-2.107 0.058,-3.913 -0.185,-5.381 -1.047,-8.613 -5.155,-17.039 -5.155,-17.039 l -0.003,0.002 c -3.764,-9.943 -9.13,-16.276 -16.026,-18.871 -13.726,-5.157 -29.919,5.825 -31.883,7.213 -3.708,3.796 -8.443,7.742 -12.608,5.553 -4.307,-2.262 -3.549,-9.072 -2.965,-12.1 1.755,-19.32 8.649,-32.682 20.494,-39.714 16.95,-10.069 38.629,-3.881 46.401,-1.103 6.95,-11.633 15.585,-18.642 25.701,-20.845 2.367,-0.514 4.68,-0.733 6.903,-0.733 12.752,0 22.59,7.248 23.071,7.608 l 0.368,0.318 c 3.476,3.479 7.845,8.624 5.655,13.161 C 7.686,-0.124 2.471,0.104 0,0"
             id="path140"
             style="fill:#000000;fill-opacity:1;fill-rule:nonzero;stroke:none" /></g><g
           transform="translate(307.8867,524.1284)"
           id="g142"><path
             d="m 0,0 c 0,-5.103 -4.137,-9.236 -9.236,-9.236 -5.104,0 -9.236,4.133 -9.236,9.236 0,5.1 4.132,9.237 9.236,9.237 C -4.137,9.237 0,5.1 0,0"
             id="path144"
             style="fill:#4d4d4d;fill-opacity:1;fill-rule:evenodd;stroke:none" /></g><g
           transform="translate(302.5181,525.7173)"
           id="g146"><path
             d="m 0,0 c 0,-2.137 -1.733,-3.866 -3.867,-3.866 -2.138,0 -3.866,1.729 -3.866,3.866 0,2.135 1.728,3.867 3.866,3.867 C -1.733,3.867 0,2.135 0,0"
             id="path148"
             style="fill:#ffffff;fill-opacity:1;fill-rule:evenodd;stroke:none" /></g><g
           transform="translate(305.1436,523.8188)"
           id="g150"><path
             d="m 0,0 c 0.346,-0.725 -0.55,-1.872 -2,-2.561 -1.451,-0.691 -2.902,-0.661 -3.248,0.065 -0.344,0.722 0.547,1.869 2,2.559 C -1.8,0.753 -0.343,0.723 0,0"
             id="path152"
             style="fill:#ffffff;fill-opacity:1;fill-rule:evenodd;stroke:none" /></g><g
           transform="translate(230.1011,553.3345)"
           id="g154"><path
             d="M 0,0 C -0.257,0 -0.438,0.052 -0.521,0.082 L 0.157,1.963 C 0.048,2.002 -0.006,2.001 -0.005,2 0.029,2.001 3.467,2.411 6.454,21.403 L 8.43,21.093 C 6.562,9.212 4.082,2.05 1.26,0.379 0.753,0.08 0.318,0 0,0"
             id="path156"
             style="fill:#000000;fill-opacity:1;fill-rule:nonzero;stroke:none" /></g><g
           transform="translate(212.8745,570.5537)"
           id="g158"><path
             d="M 0,0 C -0.243,0 -0.415,0.046 -0.496,0.074 L 0.148,1.967 C 0.044,2.003 0.001,2.001 -0.004,2 0.029,2.001 3.336,2.616 6.144,19.462 L 8.116,19.133 C 6.341,8.481 3.982,2.002 1.294,0.394 0.77,0.081 0.323,0 0,0"
             id="path160"
             style="fill:#000000;fill-opacity:1;fill-rule:nonzero;stroke:none" /></g><g
           transform="translate(195.647,587.7734)"
           id="g162"><path
             d="M 0,0 C -0.229,0 -0.392,0.041 -0.469,0.065 L 0.137,1.971 C 0.041,2.002 0.001,1.996 -0.003,2 0.028,2.001 3.139,2.518 5.803,17.463 L 7.771,17.112 C 6.073,7.585 3.906,1.965 1.331,0.41 0.788,0.083 0.327,0 0,0"
             id="path164"
             style="fill:#000000;fill-opacity:1;fill-rule:nonzero;stroke:none" /></g><g
           transform="translate(178.4189,604.9937)"
           id="g166"><path
             d="M 0,0 C -0.213,0 -0.365,0.035 -0.44,0.057 L 0.126,1.975 C 0.038,2.001 0.004,2.004 -0.002,2 0.026,2 2.923,2.423 5.425,15.422 L 7.389,15.044 C 5.804,6.811 3.78,1.893 1.373,0.427 0.808,0.083 0.331,0 0,0"
             id="path168"
             style="fill:#000000;fill-opacity:1;fill-rule:nonzero;stroke:none" /></g><g
           transform="translate(161.1914,622.2129)"
           id="g170"><path
             d="m 0,0 c -0.199,0 -0.341,0.03 -0.413,0.049 l 0.528,1.93 C 0.039,2 0.002,2 -0.002,2 0.024,2 2.723,2.346 5.074,13.657 L 7.032,13.25 C 5.552,6.13 3.661,1.821 1.411,0.443 0.826,0.084 0.333,0 0,0"
             id="path172"
             style="fill:#000000;fill-opacity:1;fill-rule:nonzero;stroke:none" /></g><g
           transform="translate(143.8936,639.4316)"
           id="g174"><path
             d="m 0,0 c -0.176,0 -0.348,0.037 -0.502,0.11 l 0.865,1.804 c -0.351,0.169 -0.617,0.044 -0.671,0.002 0.052,0.042 1.281,1.132 2.346,10.13 L 4.024,11.81 C 2.913,2.422 1.587,0.678 0.686,0.183 0.466,0.062 0.229,0 0,0"
             id="path176"
             style="fill:#000000;fill-opacity:1;fill-rule:nonzero;stroke:none" /></g><g
           transform="translate(438.1016,617.3398)"
           id="g178"><path
             d="m 0,0 c 0,0 -59.009,41.852 -75.493,44.264 0,0 -5.665,3.599 -6.8,-6.906 0,0 -13.143,-28.504 -22.457,-38.411 l -0.336,0.328 c 0,0 -22.299,11.207 -34.082,-7.676 0,0 -6.09,-12.866 29.969,-30.591 0,0 71.243,-37.89 87.469,-35.663 0,0 10.953,-1.79 10.662,7.269 0,0 -14.164,16.132 -14.83,16.79 -0.67,0.656 5.143,19.931 26.078,41.865 0,0 4.272,4.565 -0.18,8.731"
             id="path180"
             style="fill:#020202;fill-opacity:1;fill-rule:nonzero;stroke:none" /></g><g
           transform="translate(362.6084,661.6035)"
           id="g182"><path
             d="M 0,0 C 0,0 -0.671,0.427 -1.596,0.558 7.012,-6.006 53.153,-40.561 75.128,-44.01 70.183,-40.518 15.728,-2.299 0,0"
             id="path184"
             style="fill:#3f3f3f;fill-opacity:1;fill-rule:nonzero;stroke:none" /></g><g
           transform="translate(328.1602,602.0996)"
           id="g186"><path
             d="m 0,0 c 0,0 -15.766,9.159 -18.18,-6.662 l 19.764,-12 0.826,7.301 L 0,0 z"
             id="path188"
             style="fill:#3f3f3f;fill-opacity:1;fill-rule:nonzero;stroke:none" /></g><g
           transform="translate(331.9355,610.2891)"
           id="g190"><path
             d="m 0,0 c 0,0 -11.262,-15.451 -12.033,-15.345 -0.775,0.105 3.601,-8.37 5.49,-9.569 1.89,-1.201 82.485,-34.265 82.485,-34.265 l 4.528,13.837 c 0,0 -59.088,10.261 -80.47,45.342"
             id="path192"
             style="fill:#d7182a;fill-opacity:1;fill-rule:nonzero;stroke:none" /></g><g
           transform="translate(420.5068,542.6758)"
           id="g194"><path
             d="m 0,0 c 3.069,0.417 6.694,2.015 6.526,7.278 0,0 -0.101,0.114 -0.285,0.323 -0.948,-2.067 -2.973,-3.192 -6.799,0.726 -0.395,0.408 -1.021,0.878 -1.839,1.392 -10.839,6.836 -55.474,22.133 -55.474,22.133 -13.501,2.325 -47.468,21.501 -47.468,21.501 -12.962,6.652 -14.346,12.837 -13.903,16.117 -0.814,-0.957 -1.592,-2.022 -2.332,-3.207 0,0 -1.177,-2.489 0.575,-6.79 12.803,-19.207 63.626,-34.911 63.626,-34.911 C -21.007,12.074 -6.487,4.715 0,0"
             id="path196"
             style="fill:#3f3f3f;fill-opacity:1;fill-rule:nonzero;stroke:none" /></g><g
           transform="translate(358.4775,373.668)"
           id="g198"><path
             d="M 0,0 C -1.676,0.85 -9.495,4.651 -9.521,4.393 -22,10.227 -36.31,10.998 -46.141,20.704 -25.643,18.332 12.857,17.998 25.127,9.521 c 5.464,-0.093 11.025,-0.283 14.648,1.465 0,-0.375 -1.87,0.991 -1.606,1.465 1.189,0.66 -1.548,1.246 -0.314,1.862 0.001,0.002 0.004,0.011 0.004,0.011 l 0.004,-0.006 c 3.485,1.741 -3.281,3.734 -2.709,8.386 -9.683,10.246 -14.706,4.061 -31.999,6.592 -3.076,0.45 -5.171,2.801 -8.056,2.197 -3.195,-1.199 -3.28,-5.51 -5.86,-7.324 -12.109,0.584 -42.566,2.823 -52.225,5.859 0.687,7.388 2.87,9.696 0,16.113 9.052,-2.822 10.799,11.878 0,10.985 -1.967,3.404 -5.093,5.648 -8.055,8.057 -4.081,-0.313 -6.486,-2.304 -5.859,-7.325 0.424,-3.482 6.188,-1.622 7.322,-4.393 0.343,-5.958 0.083,-11.313 -2.196,-14.648 4.41,-3.964 -3.511,-14.344 2.196,-19.774 -3.345,-3.723 -0.753,-7.089 -0.593,-12.58 l 6.282,-0.943 c -0.399,3.988 2.069,5.109 2.368,8.395 1.275,3.043 -3.219,4.028 -0.732,5.859 8.028,1.835 10.786,-5.913 16.112,-8.788 10.101,-5.453 21.904,-7.035 32.959,-12.451 20.539,-8.203 42.755,-25.883 42.755,-25.883 l 3.384,5.376 c 0,0 -12.606,11.966 -20.506,16.113 C 9.284,-4.197 4.256,-2.159 0,0"
             id="path200"
             style="fill:#000000;fill-opacity:1;fill-rule:nonzero;stroke:none" /></g><g
           transform="translate(361.834,372.166)"
           id="g202"><path
             d="M 0,0 C 0,0 19.499,19.834 19.666,22.667 19.833,25.5 24.833,20.334 24.833,20.334 24.833,20.334 10.5,1.501 4,-2.166 -2.5,-5.833 0,0 0,0"
             id="path204"
             style="fill:#000000;fill-opacity:1;fill-rule:nonzero;stroke:none" /></g><g
           transform="translate(313.5,524.5)"
           id="g206"><path
             d="m 0,0 c 0,-8.284 -6.716,-15 -15,-15 -8.284,0 -15,6.716 -15,15 0,8.284 6.716,15 15,15 C -6.716,15 0,8.284 0,0 z"
             id="path208"
             style="fill:none;stroke:#f48120;stroke-width:4;stroke-linecap:butt;stroke-linejoin:miter;stroke-miterlimit:10;stroke-opacity:1;stroke-dasharray:none" /></g></g></g></g></svg>