<?xml version="1.0" encoding="UTF-8" standalone="no"?>
<!-- Generator: Adobe Illustrator 16.0.0, SVG Export Plug-In . SVG Version: 6.00 Build 0)  -->
<svg xmlns:dc="http://purl.org/dc/elements/1.1/" xmlns:cc="http://creativecommons.org/ns#" xmlns:rdf="http://www.w3.org/1999/02/22-rdf-syntax-ns#" xmlns:svg="http://www.w3.org/2000/svg" xmlns="http://www.w3.org/2000/svg" xmlns:sodipodi="http://sodipodi.sourceforge.net/DTD/sodipodi-0.dtd" xmlns:inkscape="http://www.inkscape.org/namespaces/inkscape" version="1.1" id="Layer_1" x="0px" y="0px" viewBox="0 0 1656 1040" enable-background="new 0 0 1656 1040" xml:space="preserve" inkscape:version="0.48.2 r9819" sodipodi:docname="brightrollSF.svg">
<metadata id="metadata3109">
    <rdf:RDF>
        <cc:Work rdf:about="">
            <dc:format>image/svg+xml</dc:format>
            <dc:type rdf:resource="http://purl.org/dc/dcmitype/StillImage"/>
        </cc:Work>
    </rdf:RDF>
</metadata>
<defs id="defs3107"/>
<sodipodi:namedview pagecolor="#ffffff" bordercolor="#666666" borderopacity="1" objecttolerance="10" gridtolerance="10" guidetolerance="10" inkscape:pageopacity="0" inkscape:pageshadow="2" inkscape:window-width="1715" inkscape:window-height="948" id="namedview3105" showgrid="false" inkscape:zoom="0.49615385" inkscape:cx="692.12206" inkscape:cy="398.64216" inkscape:window-x="691" inkscape:window-y="63" inkscape:window-maximized="0" inkscape:current-layer="Layer_1"/>
<rect id="XMLID_1_" x="13.453" y="14.132" opacity="0.5" fill="#E6E7E8" stroke="#939598" stroke-width="8" stroke-miterlimit="10" width="1629.458" height="1011.901"/>
<rect x="1155.967" y="759.121" opacity="0.5" fill="#A7A9AC" width="82.278" height="113.57" id="rect3091"/>
<g id="rooms">
    <rect inkscape:label="#rect3069" id="embarcadero" height="145.926" width="161.362" fill="#8DC63F" y="21.459" x="1473.479"/>
    <rect id="mission" inkscape:label="#rect3071" height="129.799" width="192.267" fill="#8DC63F" y="888.865" x="1442.575"/>
    <rect inkscape:label="#rect3073" id="financial_district" height="116.566" width="178.497" fill="#8DC63F" y="21.459" x="21.951"/>
    <rect inkscape:label="#rect3075" id="nob_hill" height="116.566" width="178.497" fill="#8DC63F" y="141.987" x="21.951"/>
    <rect inkscape:label="#rect3077" id="chinatown" height="100.031" width="150.315" fill="#8DC63F" y="254.65" x="670.405"/>
    <rect inkscape:label="#rect3079" id="marina" height="122.233" width="101.208" fill="#8DC63F" y="410.912" x="618.256"/>
    <rect inkscape:label="#rect3081" id="diamond_heights" height="127.842" width="97.344" fill="#8DC63F" y="582.607" x="710.965"/>
    <rect inkscape:label="#rect3083" id="presidio" height="127.842" width="97.344" fill="#8DC63F" y="582.607" x="607.826"/>
    <rect inkscape:label="#rect3085" id="castro" height="127.842" width="97.345" fill="#8DC63F" y="582.607" x="504.687"/>
    <rect inkscape:label="#rect3087" id="haight" height="127.842" width="97.345" fill="#8DC63F" y="582.607" x="401.548"/>
    <rect inkscape:label="#rect3089" id="golden_gate" height="141.383" width="229.839" fill="#8DC63F" y="877.324" x="1008.406"/>
    <rect inkscape:label="#rect3089" id="allhands" height="247.894" width="322.048" fill="#8DC63F" y="768.675" x="21.952"/>
    <g inkscape:label="#g3093" id="north_beachG">
        <polygon id="north_beach" points="844.233,497.22 844.233,358.947 722.554,358.947 722.554,533.145 823.374,533.145 823.374,497.22     " fill="#8DC63F"/>
    </g>
</g>
<polygon opacity="0.5" fill="#A7A9AC" points="1402.803,285.12 1138.583,285.12 1138.583,522.716 1110.771,522.716   1110.771,653.666 1155.967,653.666 1155.967,710.449 1173.349,710.449 1173.349,679.16 1197.105,679.16 1197.105,695.385   1249.833,695.385 1249.833,710.449 1329.795,710.449 1402.803,710.449 " id="polygon3097"/>
<rect x="456.017" y="760.668" opacity="0.5" fill="#A7A9AC" width="346.499" height="22.018" id="rect3099"/>
<polygon opacity="0.5" fill="#A7A9AC" points="1002.998,1018.707 980.979,1018.707 980.979,782.686 877.841,782.686   877.841,760.668 1004.156,760.668 " id="polygon3101"/>
<polygon opacity="0.5" fill="#A7A9AC" points="395.16,708.908 305.358,708.908 305.358,265.126 305.359,265.126 305.359,254.65   353.695,254.65 451.381,254.65 614.394,254.65 614.394,536.235 827.237,536.235 827.237,500.311 848.097,500.311 848.097,354.681   824.146,354.681 824.146,275.878 902.177,275.878 1055.146,275.878 1055.146,315.589 1030.811,315.589 1030.811,521.557   1055.146,521.557 1055.146,659.461 1004.156,659.461 1004.156,710.449 986.773,710.449 986.773,689.59 940.999,689.59   940.999,710.449 863.935,710.449 812.944,710.449 812.944,578.744 395.16,578.744 " id="polygon3103"/>
</svg>
